<?xml version="1.0" standalone="no"?>
<!DOCTYPE svg PUBLIC "-//W3C//DTD SVG 20010904//EN"
 "http://www.w3.org/TR/2001/REC-SVG-20010904/DTD/svg10.dtd">
<svg version="1.0" xmlns="http://www.w3.org/2000/svg"
 width="720.000000pt" height="720.000000pt" viewBox="0 0 720.000000 720.000000"
 preserveAspectRatio="xMidYMid meet">
<metadata>
Created by potrace 1.14, written by Peter Selinger 2001-2017
</metadata>
<g transform="translate(0.000000,720.000000) scale(0.100000,-0.100000)"
fill="#000000" stroke="none">
<path d="M2705 7190 c-3 -6 1 -7 9 -4 18 7 21 14 7 14 -6 0 -13 -4 -16 -10z"/>
<path d="M2910 7183 c-25 -8 -47 -18 -50 -22 -3 -4 -19 -13 -36 -20 -34 -14
-48 -53 -32 -88 9 -17 8 -17 -5 -1 -12 16 -17 14 -57 -27 -24 -25 -48 -45 -53
-45 -5 0 -19 -12 -30 -27 -12 -16 -39 -47 -59 -69 -21 -23 -38 -47 -38 -55 0
-8 8 0 18 16 11 17 26 36 36 44 15 13 16 12 6 -13 -5 -15 -21 -43 -35 -64 -20
-29 -25 -33 -26 -17 0 13 -4 9 -10 -11 -5 -17 -16 -38 -26 -45 -15 -13 -16
-11 -10 21 6 32 5 33 -7 17 -9 -12 -12 -31 -9 -53 7 -44 -12 -45 -22 -1 -5 21
-9 26 -12 15 -4 -16 -6 -16 -29 -1 -14 8 -27 13 -31 10 -3 -4 3 -10 13 -14 26
-9 45 -36 32 -44 -17 -11 -47 2 -41 17 11 30 -52 -15 -71 -51 -11 -19 -23 -35
-27 -35 -9 0 -71 -184 -76 -225 -4 -46 -35 -169 -44 -179 -4 -5 -6 2 -4 15 3
13 -1 8 -7 -11 -6 -19 -16 -38 -21 -41 -5 -4 -6 -12 -3 -18 4 -6 0 -18 -8 -27
-9 -8 -16 -25 -15 -37 1 -21 1 -21 7 1 8 28 26 31 29 5 2 -15 1 -15 -6 2 -7
14 -10 -13 -10 -85 -1 -71 2 -100 9 -90 7 11 10 7 10 -19 0 -59 11 -27 16 50
3 41 12 92 19 114 7 22 16 58 20 80 4 22 12 45 17 52 5 7 7 17 4 22 -4 5 -2
13 4 16 6 4 8 16 4 27 -4 15 -3 18 6 13 9 -5 10 -1 5 15 -5 15 -4 20 4 16 7
-5 9 -1 5 8 -4 9 1 18 10 22 9 3 14 9 11 13 -7 12 65 215 81 227 7 6 14 21 14
33 0 24 15 28 24 6 3 -8 12 -15 20 -15 8 0 18 -5 22 -12 5 -7 0 -9 -14 -6 -12
4 -26 0 -33 -8 -6 -8 -18 -14 -27 -14 -8 0 -13 -3 -9 -6 3 -3 -3 -30 -13 -60
-11 -30 -17 -54 -15 -54 2 0 -2 -18 -10 -40 -8 -23 -11 -39 -7 -36 5 3 17 31
27 63 31 101 36 112 62 128 18 12 28 14 36 6 15 -15 38 -14 36 2 -1 6 -1 23 0
37 1 18 4 21 12 13 8 -8 9 -25 4 -50 -4 -21 -9 -60 -11 -88 -1 -27 -9 -81 -18
-120 -8 -38 -13 -71 -11 -73 11 -11 59 266 57 330 0 11 5 15 14 11 12 -4 13 2
9 33 -5 28 -2 45 10 59 16 19 16 19 12 -10 -3 -16 0 -39 6 -50 10 -19 11 -18
18 10 8 33 24 80 47 137 19 48 142 162 142 131 0 -3 -15 -19 -32 -34 -18 -15
-30 -30 -27 -33 4 -4 17 5 30 19 37 39 45 29 9 -11 -21 -24 -28 -39 -21 -44 7
-4 -8 -27 -41 -62 -71 -74 -88 -96 -88 -111 1 -6 18 6 38 28 54 58 81 80 78
63 -3 -24 -18 -39 -32 -34 -8 3 -11 0 -7 -10 3 -8 -3 -21 -13 -29 -11 -7 -16
-17 -12 -20 4 -4 14 0 23 9 9 9 20 14 25 11 5 -3 11 1 13 7 4 10 6 10 6 1 1
-15 31 -18 31 -4 0 17 38 23 62 10 28 -15 70 -21 63 -9 -3 5 -12 7 -19 4 -8
-3 -16 -1 -19 3 -9 15 47 9 59 -6 9 -11 13 -10 27 4 17 16 42 12 32 -6 -4 -5
-1 -9 5 -9 7 0 10 7 6 15 -3 9 0 15 8 15 8 0 16 -4 18 -10 2 -5 25 -13 53 -17
47 -6 95 -32 63 -34 -7 0 7 -7 32 -14 54 -17 87 -45 96 -83 4 -15 10 -29 14
-32 4 -3 14 -39 22 -80 12 -64 18 -75 39 -81 13 -4 18 -7 12 -8 -7 -1 -13 -8
-13 -17 0 -8 5 -12 10 -9 6 3 10 1 10 -4 0 -6 -4 -11 -10 -11 -6 0 -10 -39 -9
-97 0 -69 3 -92 10 -78 6 14 8 5 4 -30 -16 -141 -27 -243 -28 -267 -1 -14 -4
-29 -7 -31 -3 -3 -39 -7 -80 -8 -41 -1 -90 -6 -107 -10 -27 -6 -33 -4 -33 10
0 11 -10 6 -32 -19 -18 -19 -29 -27 -25 -17 7 19 -9 23 -33 7 -9 -5 -19 -5
-27 2 -9 7 -20 4 -39 -11 -14 -11 -31 -18 -37 -14 -7 4 -4 10 7 17 10 6 25 16
34 23 16 11 15 12 -2 13 -23 0 -116 -94 -116 -118 0 -14 -2 -14 -9 -3 -13 20
-24 -19 -15 -54 8 -33 41 -31 36 3 -2 12 2 22 8 22 6 0 8 -5 4 -11 -3 -6 -2
-14 5 -18 6 -4 14 -31 18 -61 5 -30 14 -55 22 -58 9 -3 11 2 8 14 -12 42 -19
89 -12 82 14 -13 37 -122 26 -126 -7 -2 -5 -9 4 -18 8 -9 18 -13 23 -10 4 2
17 -9 27 -25 19 -28 55 -40 55 -18 0 5 -5 7 -11 3 -7 -4 -10 1 -7 12 2 10 14
21 28 24 14 3 29 16 35 28 14 32 23 27 36 -20 7 -24 16 -47 21 -52 4 -5 4 4
-1 20 -11 37 3 76 24 68 18 -7 19 -18 3 -43 -14 -23 3 -71 26 -71 37 0 41 43
7 84 -13 16 -13 18 -1 10 8 -5 29 -9 47 -10 42 -2 68 -27 53 -53 -5 -11 -10
-33 -10 -48 0 -16 -6 -35 -12 -42 -11 -11 -10 -13 2 -9 27 8 49 61 49 121 1
63 -6 59 74 42 22 -4 27 -3 21 7 -6 11 -5 11 8 0 8 -7 24 -10 34 -7 11 3 6 -1
-10 -9 l-30 -14 42 -7 c23 -4 44 -11 48 -16 3 -5 13 -9 24 -9 10 0 21 -7 24
-16 4 -9 2 -13 -5 -8 -16 10 -30 -18 -17 -33 7 -9 7 -17 -2 -28 -12 -14 -7
-19 15 -16 18 2 -49 -48 -80 -61 -16 -6 -33 -16 -36 -21 -3 -5 -37 -12 -75
-17 -38 -5 -92 -14 -119 -20 -55 -12 -115 -6 -115 13 0 7 -6 3 -12 -8 -6 -11
-16 -23 -22 -27 -16 -10 -3 -18 40 -24 26 -4 35 -3 26 4 -10 6 5 10 45 11 71
1 216 36 262 63 l34 19 21 -23 c12 -13 20 -30 18 -40 -8 -38 57 -32 78 7 16
31 30 23 30 -16 0 -18 -4 -28 -10 -24 -5 3 -10 1 -10 -4 0 -6 5 -11 11 -11 5
0 7 -4 4 -10 -3 -5 7 -12 22 -16 15 -3 34 -7 41 -10 17 -5 15 -44 -3 -44 -9 0
-20 -10 -26 -23 -8 -19 -6 -31 11 -60 12 -20 26 -35 30 -32 4 3 10 -2 14 -10
3 -8 12 -15 21 -15 8 0 15 -7 15 -15 0 -18 16 -20 23 -2 4 10 6 10 6 0 1 -8
15 -13 37 -13 27 0 37 -5 41 -19 3 -11 11 -22 18 -25 20 -7 28 -68 17 -122 -6
-28 -7 -55 -2 -64 5 -9 11 -41 13 -70 2 -30 10 -56 16 -58 9 -3 9 -7 0 -18 -9
-11 -9 -14 1 -14 9 0 8 -5 -3 -18 -10 -10 -17 -26 -17 -34 0 -9 -7 -21 -15
-28 -9 -7 -13 -15 -11 -18 3 -2 -2 -11 -10 -19 -26 -26 -13 -48 26 -45 18 1
30 -1 26 -5 -4 -5 -13 -8 -19 -8 -8 0 -13 -27 -15 -77 -2 -43 -7 -78 -12 -78
-6 0 -10 14 -10 32 0 24 -3 29 -11 21 -7 -7 -11 -36 -9 -70 1 -32 3 -74 4 -93
1 -24 6 -35 16 -35 12 0 16 -17 18 -77 3 -70 5 -78 22 -78 17 0 20 -7 20 -41
0 -32 3 -40 15 -35 18 7 20 -5 3 -23 -11 -11 -10 -12 0 -6 9 4 15 0 19 -14 5
-21 33 -30 33 -10 0 6 5 7 13 2 6 -4 17 -8 22 -8 6 0 10 -18 10 -40 0 -22 5
-44 12 -50 6 -5 12 -17 13 -25 6 -41 0 -47 -50 -54 -42 -6 -53 -11 -60 -31 -8
-22 -13 -23 -35 -15 -20 7 -25 6 -25 -5 0 -8 -5 -15 -12 -15 -6 0 -40 -14 -75
-30 -34 -17 -69 -30 -76 -30 -7 0 -4 -7 7 -15 10 -8 23 -12 29 -8 11 7 28 -17
20 -29 -2 -5 -14 -6 -25 -2 -15 4 -18 3 -13 -6 5 -8 23 -11 51 -7 24 2 44 1
44 -4 0 -8 -24 -13 -58 -12 -15 1 50 -89 69 -96 12 -3 12 -1 1 11 -11 13 -7
18 25 31 43 17 56 14 27 -8 -10 -8 -15 -15 -10 -15 5 0 3 -7 -4 -15 -21 -26
-4 -28 42 -6 33 16 37 17 19 4 -57 -41 -65 -54 -18 -29 58 31 67 33 36 6 l-24
-21 32 16 c45 21 50 19 23 -10 -12 -13 -26 -22 -30 -20 -4 2 -18 -7 -31 -22
l-24 -26 34 18 c19 9 43 26 54 36 24 22 43 24 53 7 4 -6 -5 -22 -22 -36 l-29
-25 38 21 c44 25 47 21 10 -16 -16 -15 -24 -24 -19 -20 23 19 27 6 6 -17 -13
-14 -20 -25 -16 -25 5 0 2 -7 -5 -17 -13 -15 -11 -15 19 1 36 19 38 16 18 -23
-13 -24 -13 -28 0 -28 8 0 14 4 14 9 0 14 22 9 35 -9 11 -15 15 -16 31 -3 18
14 18 14 1 -7 -18 -21 -18 -22 3 -43 21 -21 22 -21 35 -4 7 10 10 24 7 32 -4
11 0 13 16 7 16 -5 22 -2 22 9 0 9 5 16 10 16 6 0 10 10 10 23 0 12 4 29 10
37 15 24 48 -14 48 -58 0 -37 25 -67 45 -55 6 4 8 0 4 -9 -4 -12 -1 -14 13
-11 12 3 16 11 13 26 -4 21 -4 21 11 4 8 -10 23 -17 33 -14 17 4 17 4 -2 12
-11 5 -23 13 -27 19 -5 8 -13 8 -26 -1 -17 -10 -19 -8 -19 17 0 21 5 28 18 27
10 -1 15 -5 13 -9 -3 -4 4 -8 15 -8 15 0 19 -4 14 -17 -4 -10 -2 -14 5 -9 6 3
14 1 17 -5 4 -5 14 -8 22 -5 16 7 15 -24 -3 -134 -6 -36 -9 -41 -16 -25 -6 16
-7 13 -4 -9 2 -16 -7 -72 -20 -124 -27 -105 -28 -112 -16 -112 5 0 16 27 26
60 18 59 43 75 31 19 -4 -18 -3 -29 4 -29 6 0 11 6 12 13 0 6 5 1 10 -12 5
-14 6 -27 1 -30 -5 -3 -11 -16 -15 -29 -4 -18 -2 -22 9 -18 15 6 19 -14 5 -29
-5 -6 -13 -50 -20 -99 -10 -86 -22 -116 -45 -116 -6 -1 -20 -15 -32 -33 -11
-18 -26 -31 -32 -30 -7 2 -11 0 -11 -5 1 -4 1 -16 0 -27 -1 -15 -3 -17 -10 -6
-10 15 -8 56 4 84 5 12 3 17 -8 17 -8 0 -17 -13 -20 -28 -3 -16 -22 -45 -41
-64 -37 -37 -45 -53 -24 -46 31 11 62 -56 60 -127 -1 -26 2 -31 21 -30 12 1
29 4 37 8 21 9 131 4 117 -5 -9 -6 -8 -8 1 -8 7 0 15 7 19 16 3 8 12 13 19 10
8 -3 14 -1 14 4 0 6 5 10 11 10 5 0 8 -4 5 -9 -4 -5 0 -12 6 -14 7 -3 4 -6 -8
-6 -11 -1 -29 -8 -40 -17 -18 -14 -18 -15 4 -4 13 6 30 9 37 6 8 -3 15 -1 17
3 2 4 18 11 36 14 21 4 31 3 27 -3 -6 -9 8 -14 28 -11 5 1 6 -3 3 -8 -4 -5
-15 -8 -26 -6 -25 5 -27 -12 -2 -17 10 -3 4 -6 -15 -9 -27 -5 -33 -2 -33 12 0
9 6 20 13 22 8 4 7 6 -4 6 -8 1 -19 -3 -25 -8 -5 -5 -38 -19 -74 -31 -102 -34
-210 -82 -205 -90 3 -5 40 7 83 25 92 38 131 51 117 38 -5 -5 -32 -18 -60 -28
-55 -19 -87 -42 -45 -31 14 3 45 9 70 13 25 3 50 9 55 13 19 13 65 21 65 10 0
-5 -8 -10 -19 -10 -10 0 -24 -7 -31 -15 -7 -8 -17 -12 -23 -8 -6 3 -7 1 -3 -5
4 -7 2 -12 -3 -12 -20 0 -11 -20 12 -30 16 -6 17 -9 5 -9 -9 -1 -20 4 -23 9
-4 6 -11 7 -17 4 -6 -4 -5 -10 3 -15 10 -6 6 -9 -13 -9 -17 0 -41 -13 -65 -35
-21 -19 -45 -35 -54 -35 -9 0 -24 -17 -34 -37 -10 -21 -34 -72 -53 -113 -20
-41 -35 -79 -33 -85 1 -5 0 -7 -4 -3 -4 4 -18 3 -30 -2 -16 -6 -25 -5 -28 3
-2 7 -11 -1 -20 -18 -10 -19 -16 -24 -17 -13 0 23 -18 32 -35 18 -24 -20 -35
-2 -34 54 1 30 -2 59 -5 65 -4 6 -3 11 1 11 5 0 7 18 5 40 -3 29 -8 40 -21 39
-10 0 -11 -2 -3 -6 6 -2 12 -9 12 -14 0 -5 -14 -2 -30 6 -17 9 -40 13 -50 10
-15 -5 -20 -2 -20 12 0 27 64 125 76 116 5 -4 6 -4 1 1 -4 5 -1 16 6 25 19 22
28 49 17 56 -4 3 -7 21 -6 41 3 27 0 34 -11 30 -8 -3 -11 -2 -8 3 3 5 0 11 -7
14 -7 2 -2 2 11 0 21 -4 23 -2 12 10 -7 10 -8 17 -2 21 5 4 15 -2 21 -11 11
-17 11 -17 6 0 -3 10 0 17 7 17 7 0 24 18 37 40 14 22 29 40 33 40 5 0 5 5 2
10 -3 6 -1 10 5 10 6 0 9 4 5 9 -3 5 2 17 12 26 9 9 20 38 24 64 8 53 3 168
-9 202 -9 23 -9 23 -16 -5 -4 -15 -4 -37 0 -48 4 -14 2 -18 -5 -14 -7 5 -11
-3 -11 -23 0 -16 -4 -33 -10 -36 -6 -3 -10 -14 -10 -24 0 -9 -22 -42 -48 -72
-48 -54 -65 -81 -96 -151 -16 -38 -6 -54 13 -21 5 10 13 14 17 10 5 -5 2 -12
-6 -17 -10 -6 -15 -27 -15 -66 0 -55 -1 -57 -37 -75 -37 -19 -41 -26 -52 -99
-3 -19 -12 -66 -19 -105 -8 -38 -15 -77 -16 -85 -1 -18 -7 -63 -26 -195 -18
-125 -21 -197 -10 -216 8 -12 6 -12 -8 0 -9 7 -14 17 -11 22 3 5 1 9 -5 9 -5
0 -12 -4 -15 -8 -5 -9 71 -132 93 -149 12 -9 13 -12 3 -13 -8 0 -38 25 -67 55
-30 30 -57 55 -60 55 -3 0 5 -17 19 -37 14 -20 23 -40 20 -45 -3 -4 -1 -8 4
-8 11 0 12 -31 2 -45 -4 -5 -6 -19 -4 -30 4 -20 -26 -95 -38 -95 -3 0 -4 -9
-1 -20 3 -11 1 -20 -5 -20 -15 0 -33 26 -24 35 4 4 -2 5 -13 1 -20 -6 -21 -3
-17 59 3 45 1 65 -8 65 -7 0 -11 -19 -10 -57 1 -32 1 -67 0 -78 -2 -17 -3 -16
-10 5 -7 20 -8 16 -9 -23 -1 -45 0 -47 19 -35 18 11 23 10 40 -12 11 -14 20
-28 20 -32 0 -16 -26 -7 -37 11 -8 13 -19 18 -32 14 -12 -3 -19 -9 -16 -13 3
-5 1 -11 -4 -14 -5 -3 -12 -34 -16 -68 -4 -35 -9 -72 -12 -83 -3 -11 -7 -47
-9 -80 -6 -84 -11 -116 -20 -123 -3 -4 -4 22 0 58 4 36 9 169 12 295 4 220 9
275 60 640 14 102 76 341 106 410 23 53 60 96 73 85 19 -15 39 15 31 46 -7 28
-32 28 -29 -1 1 -10 -12 -29 -28 -43 -79 -66 -138 -285 -201 -747 l-13 -90 -6
125 c-5 88 -3 143 6 185 7 33 21 96 30 140 17 79 81 270 106 316 11 22 11 23
-4 10 -10 -7 -17 -17 -17 -22 0 -5 -9 -28 -20 -52 -36 -77 -91 -251 -104 -332
-2 -11 -9 -40 -15 -65 -6 -25 -11 -70 -11 -100 -1 -40 -4 -50 -10 -35 -7 17
-9 17 -9 3 -1 -10 7 -26 17 -36 15 -15 17 -30 11 -112 -5 -88 -6 -90 -8 -30
-2 47 -5 59 -11 45 -7 -15 -9 -9 -9 26 -1 27 -7 51 -15 58 -7 6 -17 26 -22 44
-7 26 -9 14 -12 -57 -2 -57 -8 -96 -17 -110 -13 -17 -15 -18 -15 -3 0 9 3 17
8 17 4 0 8 55 8 123 1 105 0 114 -7 62 -5 -33 -16 -131 -24 -219 -8 -88 -18
-162 -21 -165 -8 -7 3 245 11 279 5 19 4 22 -4 10 -10 -13 -11 -13 -12 0 -2
30 -17 -37 -18 -82 -1 -26 -5 -50 -11 -53 -5 -3 -10 -17 -10 -30 0 -13 -4 -27
-10 -30 -6 -4 -10 11 -10 37 -1 35 -3 40 -11 25 -6 -10 -11 -41 -12 -68 -1
-27 -7 -53 -13 -57 -6 -4 -14 -14 -17 -22 -3 -8 -6 1 -6 20 -1 26 2 31 9 20 8
-13 10 -13 10 2 0 26 -11 48 -21 42 -5 -3 -9 5 -10 18 0 22 -1 22 -9 3 -8 -19
-8 -19 -18 5 l-11 25 -1 -25 c0 -20 -2 -22 -10 -10 -8 12 -10 9 -10 -12 0 -18
-4 -26 -13 -22 -7 2 -23 -7 -35 -21 -12 -14 -19 -25 -17 -25 3 0 1 -9 -5 -20
-6 -11 -15 -18 -21 -15 -5 4 -9 -4 -9 -16 0 -21 4 -19 43 19 l43 43 2 -73 c1
-70 -14 -142 -28 -133 -4 2 -17 -5 -28 -16 -17 -15 -22 -16 -22 -5 0 8 7 21
15 30 8 8 15 19 15 25 0 6 5 11 10 11 6 0 10 6 10 12 0 7 -13 -2 -29 -20 -17
-17 -37 -32 -45 -32 -10 0 -13 -6 -9 -17 4 -11 3 -14 -5 -9 -18 11 -14 31 8
51 11 10 20 22 20 28 0 5 8 17 18 26 24 23 65 82 59 87 -2 3 -17 -12 -33 -33
-32 -43 -60 -72 -89 -94 -19 -14 -19 -13 -2 11 31 44 19 55 -20 17 -20 -21
-40 -37 -43 -37 -11 0 -30 -84 -20 -90 11 -7 -10 -111 -24 -116 -7 -3 -9 -33
-6 -92 3 -48 3 -178 0 -290 l-5 -202 97 0 c67 0 98 4 102 13 5 9 7 9 12 0 4
-10 419 -13 2025 -13 l2019 0 0 939 0 939 -27 18 c-16 10 -76 42 -136 72 -59
29 -105 58 -102 63 4 5 -2 12 -12 16 -21 8 -30 15 -91 69 -31 27 -56 42 -74
42 -18 0 -25 -4 -21 -12 4 -6 -4 -4 -17 5 -14 9 -34 31 -45 50 -11 19 -27 35
-35 37 -8 2 -17 8 -18 13 -2 5 -8 6 -14 3 -6 -4 -14 0 -19 7 -7 12 -12 12 -29
1 -16 -10 -25 -10 -43 0 -12 7 -28 13 -36 14 -8 2 -18 8 -22 16 -4 7 -11 9
-15 6 -7 -8 -94 77 -94 91 0 5 -6 9 -12 8 -31 -1 -48 4 -48 13 0 6 13 10 29
10 29 0 49 15 37 27 -3 4 -24 1 -46 -6 -23 -7 -47 -8 -55 -3 -13 7 -11 14 12
44 41 53 102 88 144 84 138 -16 173 -17 157 -6 -10 6 -18 19 -18 28 0 9 -15
33 -33 52 -17 19 -39 44 -47 55 -15 19 -15 19 13 2 16 -10 33 -17 39 -15 5 2
-11 15 -37 28 -26 13 -54 34 -63 45 -10 12 -22 20 -27 18 -19 -6 -215 214
-215 241 0 4 -21 41 -46 83 -25 41 -75 136 -111 211 l-65 137 -3 160 c-2 148
-11 206 -40 290 -24 66 -59 152 -95 229 -22 49 -38 91 -35 94 2 3 -3 10 -11
17 -15 10 -15 12 2 12 39 2 100 -30 142 -75 l44 -47 -45 66 c-46 66 -46 66
-24 77 22 10 22 10 -3 10 -56 -2 -90 3 -90 11 0 14 37 20 77 11 20 -5 42 -6
47 -2 6 4 19 7 28 7 16 0 57 33 162 127 l41 37 3 -57 c2 -31 -4 -95 -12 -142
-48 -260 -61 -605 -31 -783 19 -110 53 -222 71 -238 18 -15 18 -10 -6 39 -65
134 -82 395 -50 752 6 74 13 136 14 138 2 1 6 -73 9 -165 6 -165 8 -188 26
-288 l9 -50 2 40 c1 22 2 43 1 47 0 4 -3 24 -6 45 -3 21 -8 99 -10 173 -3 103
-2 126 6 95 10 -41 24 -63 35 -53 3 4 1 15 -4 25 -6 12 -5 57 4 128 7 61 13
118 14 128 0 10 3 16 8 14 4 -3 5 15 3 39 -2 27 1 44 8 44 6 0 8 -12 5 -30 -4
-19 -2 -30 5 -30 10 0 16 49 12 90 -2 13 0 13 8 1 12 -19 4 -124 -14 -177 -9
-26 -12 -61 -8 -97 5 -48 3 -57 -16 -73 -11 -10 -21 -23 -21 -29 0 -5 5 -3 11
5 7 11 9 -3 7 -52 -2 -38 -1 -65 2 -60 4 4 21 99 39 212 43 279 62 381 71 375
4 -2 6 10 6 28 -1 28 3 32 26 35 l27 3 -5 -73 c-2 -40 -8 -102 -13 -138 -19
-126 -20 -140 -10 -145 5 -4 10 6 10 22 1 15 3 37 4 48 28 208 37 270 41 275
7 7 27 -30 30 -55 1 -11 -4 -69 -11 -130 -7 -60 -12 -124 -10 -142 2 -18 -8
-69 -21 -115 -13 -46 -22 -88 -20 -95 3 -6 1 -13 -3 -15 -5 -2 -12 -14 -16
-28 -7 -22 -4 -21 24 10 17 19 31 40 31 46 0 21 30 38 42 26 9 -9 9 -12 0 -12
-6 0 -9 -7 -5 -15 5 -13 8 -13 20 5 8 12 12 28 9 37 -6 14 -4 14 10 2 15 -12
16 -10 9 20 -5 24 -4 31 4 27 8 -5 10 4 6 30 -2 20 -2 34 1 31 9 -8 30 15 32
33 5 44 15 80 24 80 7 0 8 -32 5 -87 -4 -63 -3 -77 3 -48 5 22 9 56 9 76 1 21
11 48 25 68 l25 33 -4 -38 c-4 -42 -6 -59 -30 -234 -16 -116 -56 -379 -77
-501 -6 -36 -8 -72 -5 -80 3 -8 6 -5 6 9 1 12 6 22 12 22 5 0 17 16 25 35 20
50 16 57 -7 10 l-19 -40 5 45 c19 163 93 574 95 530 2 -32 3 -33 10 -10 4 14
8 42 9 62 1 32 34 128 44 128 3 0 1 -19 -3 -42 -5 -24 -11 -68 -14 -98 -3 -30
-8 -68 -10 -85 -3 -16 -10 -66 -16 -110 -12 -82 -50 -247 -70 -299 -6 -16 -8
-31 -6 -33 8 -8 56 158 81 282 13 66 31 179 40 250 9 72 21 138 26 148 5 10 7
23 3 29 -4 6 1 17 11 25 11 7 16 13 12 13 -4 0 3 19 16 43 53 97 72 238 56
419 -13 143 -9 179 11 98 7 -30 16 -57 20 -60 3 -3 17 -43 30 -89 14 -45 26
-79 28 -73 3 11 -15 90 -52 227 -14 49 -22 93 -19 99 3 5 2 6 -3 3 -5 -3 -14
9 -20 28 -9 30 -9 32 7 22 27 -17 48 -73 74 -198 18 -89 23 -104 24 -70 1 25
-3 58 -8 75 -5 17 -15 51 -21 76 -7 25 -19 65 -27 90 -8 25 -18 59 -23 75 -4
17 -20 57 -34 90 -25 58 -26 59 -4 33 77 -90 144 -200 153 -250 6 -32 9 -37
12 -20 3 12 9 20 14 17 17 -11 9 11 -23 60 -18 28 -41 68 -51 90 -11 22 -48
82 -83 132 -35 51 -64 100 -64 108 0 8 -4 15 -10 15 -5 0 -1 15 9 34 12 21 16
38 10 47 -5 8 -9 16 -9 19 0 3 60 66 134 141 140 142 211 243 241 343 17 57
19 112 5 121 -5 3 -10 14 -10 25 0 25 -64 86 -97 93 -121 25 -180 44 -259 83
-54 27 -112 47 -143 51 -47 5 -53 4 -77 -22 -30 -33 -41 -25 -48 35 -11 92
-167 376 -314 573 -42 56 -76 105 -74 109 1 4 -21 32 -49 62 l-51 56 -1546 -1
c-1381 0 -1552 -2 -1592 -16z m3156 -25 l29 -33 -32 29 c-31 28 -38 36 -30 36
2 0 16 -15 33 -32z m-60 -61 c8 3 14 3 14 0 0 -14 -30 -14 -41 1 -11 14 -11
15 0 5 7 -6 20 -9 27 -6z m94 -40 c0 -4 4 -5 10 -2 15 9 91 -75 159 -175 58
-86 135 -220 127 -220 -15 0 -35 14 -30 21 3 5 1 9 -3 9 -5 0 -18 19 -28 43
-28 63 -95 157 -112 157 -9 0 -13 6 -9 15 4 10 -1 15 -14 15 -11 0 -21 6 -22
13 0 6 -2 17 -3 22 -2 6 -3 16 -4 23 0 6 -5 12 -10 12 -5 0 -8 -6 -7 -12 0 -7
-3 -14 -9 -15 -5 -2 -11 3 -11 10 -1 6 -2 17 -3 22 -1 6 -8 2 -15 -8 -12 -16
-14 -16 -20 -2 -3 9 -2 14 2 11 4 -2 16 2 27 10 18 13 18 15 2 31 -16 17 -22
11 -19 -18 1 -4 -10 -2 -23 5 -19 9 -21 13 -9 19 22 12 17 24 -13 32 -26 7
-26 8 -8 15 19 8 45 -11 45 -33z m-3340 -50 c0 -2 -10 -12 -21 -23 -22 -19
-22 -19 -10 4 10 18 31 31 31 19z m-65 -44 c-8 -16 -26 -41 -40 -58 -19 -23
-25 -26 -25 -13 0 15 65 98 76 98 3 0 -2 -12 -11 -27z m3548 -103 c3 -11 1
-18 -4 -14 -5 3 -9 12 -9 20 0 20 7 17 13 -6z m-3651 -112 c-10 -28 -18 -45
-20 -36 -3 16 23 88 32 88 2 0 -3 -23 -12 -52z m408 42 c0 -12 -42 -23 -67
-17 -15 3 -14 5 7 15 32 14 60 15 60 2z m-153 -6 c-3 -3 -12 -4 -19 -1 -8 3
-5 6 6 6 11 1 17 -2 13 -5z m-97 -24 c-8 -5 -17 -7 -19 -4 -3 3 1 9 9 14 8 5
17 7 19 4 3 -3 -1 -9 -9 -14z m200 -14 c0 -2 -7 -7 -16 -10 -8 -3 -12 -2 -9 4
6 10 25 14 25 6z m125 -36 c-3 -5 -13 -10 -21 -10 -8 0 -14 5 -14 10 0 6 9 10
21 10 11 0 17 -4 14 -10z m-718 -52 c-3 -8 -6 -5 -6 6 -1 11 2 17 5 13 3 -3 4
-12 1 -19z m73 6 c0 -2 -12 -4 -27 -4 -21 0 -24 3 -14 9 13 8 41 5 41 -5z m30
-14 c0 -5 -7 -10 -16 -10 -8 0 -12 5 -9 10 3 6 10 10 16 10 5 0 9 -4 9 -10z
m1041 -194 c6 -22 21 -72 34 -111 32 -97 78 -355 68 -381 -3 -8 0 -14 5 -14 7
0 10 -15 8 -36 -2 -20 4 -50 15 -72 26 -50 25 -70 -3 -67 -42 4 -43 5 -28 15
21 14 -5 13 -31 0 -22 -12 -60 3 -58 23 0 8 2 7 6 -2 4 -11 7 -11 13 -1 5 8 2
19 -6 28 -12 11 -12 17 -2 29 23 28 8 335 -23 483 -6 25 -12 63 -16 85 -3 22
-9 48 -14 57 -7 14 -6 16 6 12 8 -3 20 -25 26 -48z m-1213 18 c0 -15 -4 -22
-10 -16 -5 5 -6 16 -2 25 9 23 12 21 12 -9z m1250 -39 c-3 -3 -9 2 -12 12 -6
14 -5 15 5 6 7 -7 10 -15 7 -18z m-1274 -30 c3 -8 1 -15 -4 -15 -6 0 -10 7
-10 15 0 8 2 15 4 15 2 0 6 -7 10 -15z m1308 -58 c7 -36 -8 -35 -16 1 -3 15
-8 38 -12 52 l-6 25 15 -26 c8 -14 16 -38 19 -52z m-115 -29 c-3 -8 -6 -5 -6
6 -1 11 2 17 5 13 3 -3 4 -12 1 -19z m138 -73 c7 -30 10 -53 5 -50 -4 2 -10
22 -14 44 -3 22 -9 48 -13 58 -3 10 -3 15 2 11 4 -4 13 -32 20 -63z m-258 25
c-1 -11 -5 -20 -9 -20 -4 0 -8 9 -8 20 0 11 4 20 9 20 6 0 9 -9 8 -20z m65
-12 c-8 -8 -9 -4 -5 13 4 13 8 18 11 10 2 -7 -1 -18 -6 -23z m3565 6 c-3 -3
-12 -4 -19 -1 -8 3 -5 6 6 6 11 1 17 -2 13 -5z m-3628 -72 c1 -7 -3 -10 -9 -7
-5 3 -10 18 -9 33 0 24 1 25 9 7 5 -11 9 -26 9 -33z m108 31 c1 -10 2 -66 3
-125 1 -61 6 -105 11 -102 5 3 9 2 9 -3 0 -4 3 -19 6 -33 4 -19 3 -22 -5 -10
-14 21 -21 10 -26 -46 -6 -58 -24 -106 -36 -98 -5 3 -7 9 -4 14 3 5 -9 5 -27
-1 -38 -10 -46 -2 -40 42 3 23 7 27 14 18 5 -9 6 0 2 23 -5 30 -3 39 11 44 11
5 13 9 5 14 -14 9 14 86 42 113 23 22 23 28 1 20 -16 -6 -16 -5 -5 10 8 9 11
21 8 26 -4 5 -2 12 4 16 5 3 10 1 10 -6 0 -7 3 -9 6 -6 4 4 1 13 -6 22 -7 9
-9 22 -5 32 5 10 7 26 6 36 -1 9 2 17 6 17 5 0 9 -8 10 -17z m-46 -26 c-8 -8
-11 -7 -11 4 0 20 13 34 18 19 3 -7 -1 -17 -7 -23z m78 -37 c4 0 8 -7 8 -15 0
-8 -4 -12 -8 -9 -4 2 -10 -4 -12 -13 -3 -10 -5 2 -5 27 0 25 2 37 5 28 2 -10
8 -18 12 -18z m-1307 -7 c-3 -16 -7 -22 -10 -15 -4 13 4 42 11 42 2 0 2 -12
-1 -27z m1435 5 c-3 -8 -6 -5 -6 6 -1 11 2 17 5 13 3 -3 4 -12 1 -19z m-241
-110 c-8 -18 -19 -49 -25 -68 -11 -43 -13 -11 -2 46 8 40 33 81 39 63 2 -4 -3
-23 -12 -41z m111 -5 c-3 -10 -5 -4 -5 12 0 17 2 24 5 18 2 -7 2 -21 0 -30z
m185 -123 c-2 -21 0 -30 7 -25 7 3 11 -2 11 -14 0 -21 -15 -37 -23 -24 -2 5
-8 30 -12 57 -5 38 -4 47 7 44 8 -3 12 -17 10 -38z m18 -95 c0 -8 -2 -15 -4
-15 -2 0 -6 7 -10 15 -3 8 -1 15 4 15 6 0 10 -7 10 -15z m10 -41 c0 -8 -5 -12
-10 -9 -6 4 -8 11 -5 16 9 14 15 11 15 -7z m-487 -11 c-7 -2 -19 -2 -25 0 -7
3 -2 5 12 5 14 0 19 -2 13 -5z m-299 -58 c-35 -43 -44 -51 -44 -40 0 6 71 85
77 85 2 0 -12 -20 -33 -45z m953 31 c0 -8 -6 -12 -15 -9 -11 5 -11 7 0 14 7 5
13 9 14 9 0 0 1 -6 1 -14z m-957 -76 c-6 -11 -13 -20 -16 -20 -2 0 0 9 6 20 6
11 13 20 16 20 2 0 0 -9 -6 -20z m653 -27 c-7 -2 -19 -2 -25 0 -7 3 -2 5 12 5
14 0 19 -2 13 -5z m-288 -23 c49 -11 82 -23 118 -42 21 -10 100 -13 115 -4 6
4 16 -3 22 -14 6 -11 16 -20 23 -18 23 4 55 -13 60 -32 3 -10 3 -21 0 -23 -7
-7 -102 20 -119 33 -8 7 -14 10 -14 7 0 -4 -19 1 -42 9 -39 14 -101 29 -153
38 -11 2 -62 4 -113 5 l-93 1 28 30 c24 25 34 29 73 25 25 -2 68 -9 95 -15z
m-358 -37 c-3 -10 -5 -4 -5 12 0 17 2 24 5 18 2 -7 2 -21 0 -30z m38 26 c-4
-5 -2 -22 4 -37 14 -37 22 -114 10 -106 -5 3 -9 11 -7 17 1 7 -4 30 -10 52
-15 50 -15 85 -1 85 5 0 7 -5 4 -11z m590 -19 c3 -5 1 -10 -4 -10 -6 0 -11 5
-11 10 0 6 2 10 4 10 3 0 8 -4 11 -10z m-613 -55 c3 -14 1 -25 -3 -25 -5 0 -9
11 -9 25 0 14 2 25 4 25 2 0 6 -11 8 -25z m5 -67 c-3 -7 -5 -2 -5 12 0 14 2
19 5 13 2 -7 2 -19 0 -25z m420 16 c-3 -3 -12 -4 -19 -1 -8 3 -5 6 6 6 11 1
17 -2 13 -5z m-197 -64 c0 -5 -2 -10 -4 -10 -3 0 -8 5 -11 10 -3 6 -1 10 4 10
6 0 11 -4 11 -10z m505 -29 c6 -18 4 -22 -6 -15 -8 5 -20 9 -28 11 -8 1 -21 9
-30 19 -9 9 -10 14 -4 10 7 -4 22 -9 34 -11 16 -3 19 0 14 13 -4 11 -3 13 3 7
5 -5 13 -21 17 -34z m26 14 c5 4 6 -1 2 -10 -5 -13 -7 -14 -14 -3 -5 7 -8 18
-8 23 0 6 3 4 6 -3 2 -6 9 -10 14 -7z m206 -247 c-3 -7 -5 -2 -5 12 0 14 2 19
5 13 2 -7 2 -19 0 -25z m-210 -160 c-3 -8 -6 -5 -6 6 -1 11 2 17 5 13 3 -3 4
-12 1 -19z m3150 -338 c-4 -99 -9 -134 -26 -170 -11 -25 -19 -35 -16 -24 16
65 35 209 36 279 1 44 4 71 6 60 3 -11 3 -76 0 -145z m-427 -40 c0 -5 -7 -10
-15 -10 -8 0 -15 5 -15 10 0 6 7 10 15 10 8 0 15 -4 15 -10z m-83 -52 c-3 -8
-6 -5 -6 6 -1 11 2 17 5 13 3 -3 4 -12 1 -19z m-136 -41 c-10 -9 -11 -8 -5 6
3 10 9 15 12 12 3 -3 0 -11 -7 -18z m39 -116 c-7 -47 -17 -93 -22 -101 -12
-20 1 129 13 152 5 9 9 27 10 40 0 14 3 17 6 9 3 -8 0 -53 -7 -100z m87 77
c-3 -8 -6 -5 -6 6 -1 11 2 17 5 13 3 -3 4 -12 1 -19z m332 -110 c-17 -34 -19
-34 -19 -5 0 18 5 27 15 27 13 0 14 -4 4 -22z m81 2 c6 9 10 10 10 3 0 -6 -7
-18 -15 -27 -9 -8 -16 -18 -15 -21 1 -18 -1 -23 -14 -28 -14 -6 -14 -4 -1 57
5 23 8 27 16 15 8 -12 10 -12 19 1z m-123 -26 c-3 -3 -12 -4 -19 -1 -8 3 -5 6
6 6 11 1 17 -2 13 -5z m-398 -116 c0 -13 -3 -17 -6 -10 -2 6 -10 9 -16 5 -7
-4 -6 1 2 10 18 22 21 21 20 -5z m270 -47 c-6 -18 -13 -30 -15 -28 -2 2 1 18
7 36 6 18 13 30 15 28 2 -2 -1 -18 -7 -36z m-202 -3 c-3 -7 -5 -2 -5 12 0 14
2 19 5 13 2 -7 2 -19 0 -25z m-583 -22 c-3 -12 -11 -25 -17 -31 -7 -7 -8 -6
-3 2 4 7 2 22 -5 34 -9 17 -13 19 -20 8 -10 -16 -12 -8 -3 15 10 25 56 -1 48
-28z m513 12 c-3 -8 -6 -5 -6 6 -1 11 2 17 5 13 3 -3 4 -12 1 -19z m-370 -108
c34 -70 42 -95 18 -64 -27 36 -15 -6 24 -84 38 -75 48 -104 70 -188 11 -41 15
-91 7 -83 -3 2 -16 44 -30 92 -27 93 -113 304 -148 363 l-21 36 24 -4 c18 -2
31 -19 56 -68z m-132 23 c2 -15 24 -84 50 -153 26 -69 76 -201 110 -295 34
-93 77 -194 94 -223 17 -29 31 -61 31 -70 0 -9 32 -76 71 -147 92 -167 86
-157 147 -249 29 -43 52 -82 52 -87 0 -5 6 -9 13 -9 8 0 44 -40 81 -90 61 -81
88 -111 71 -77 -9 17 83 -84 95 -104 8 -15 5 -16 -28 -8 -51 11 -123 14 -147
5 -11 -4 -8 0 8 9 30 18 32 21 15 31 -7 5 -8 2 -3 -7 5 -8 5 -11 1 -7 -4 3 -6
8 -4 10 2 2 -13 26 -33 53 -19 28 -34 56 -31 63 4 14 44 -40 48 -66 4 -20 14
-28 14 -11 0 8 11 1 26 -16 l26 -30 -23 35 c-50 77 -80 109 -99 105 -10 -2
-21 3 -24 11 -3 9 -1 12 4 9 6 -4 -1 11 -15 32 -26 37 -45 59 -31 36 4 -7 5
-13 3 -13 -7 0 -47 70 -47 82 0 5 -11 19 -25 30 -14 11 -25 26 -25 33 0 13
-35 73 -60 102 -5 7 -10 19 -10 28 0 8 -7 15 -16 15 -11 0 -15 6 -11 20 3 11
2 18 -2 16 -3 -2 -15 13 -25 35 -10 21 -23 36 -27 33 -5 -3 -6 2 -3 10 4 10 1
16 -7 16 -7 0 -9 3 -6 6 4 4 -2 15 -14 25 -11 9 -16 19 -10 21 5 1 -7 36 -26
77 -25 53 -38 70 -44 60 -7 -12 -9 -11 -10 1 -3 33 -5 37 -21 54 -10 10 -18
29 -18 42 0 14 -4 22 -10 19 -5 -3 -10 3 -10 14 0 11 -4 23 -10 26 -5 3 -10
13 -10 22 0 14 -41 111 -75 176 -8 16 -15 53 -15 83 0 44 -3 54 -17 55 -15 0
-15 2 2 9 11 5 15 9 9 9 -12 1 -36 70 -28 83 3 5 11 5 17 -1 12 -9 41 12 30
22 -3 3 -7 23 -10 44 -3 21 -2 35 2 31 4 -4 9 -20 10 -35z m116 -117 c32 -77
33 -80 19 -71 -15 9 -13 1 21 -67 42 -88 76 -176 84 -223 8 -41 14 -135 8
-135 -9 0 -50 100 -103 256 -67 196 -86 266 -95 334 l-5 45 21 -35 c12 -19 35
-66 50 -104z m-84 72 c-3 -7 -5 -2 -5 12 0 14 2 19 5 13 2 -7 2 -19 0 -25z
m143 -202 c0 -12 -5 -7 -19 24 -11 24 -11 24 3 6 9 -11 16 -24 16 -30z m20
-456 c0 -5 -4 -10 -10 -10 -5 0 -10 5 -10 10 0 6 5 10 10 10 6 0 10 -4 10 -10z
m-2080 -70 c-13 -24 -8 -25 33 -3 29 15 31 15 19 0 -20 -23 -51 -31 -68 -17
-12 11 -12 14 3 26 24 18 25 17 13 -6z m120 -44 c0 -2 -7 -7 -16 -10 -8 -3
-12 -2 -9 4 6 10 25 14 25 6z m186 -188 c4 -7 3 -8 -5 -4 -6 4 -14 1 -17 -8
-7 -18 -35 -30 -31 -14 6 33 39 49 53 26z m395 -82 c-14 -36 -22 -33 -9 5 6
16 12 28 14 26 3 -2 0 -16 -5 -31z m-31 -116 c0 -5 -4 -10 -10 -10 -5 0 -10 5
-10 10 0 6 5 10 10 10 6 0 10 -4 10 -10z m-23 -92 c-3 -7 -5 -2 -5 12 0 14 2
19 5 13 2 -7 2 -19 0 -25z m-10 -70 c-3 -7 -5 -2 -5 12 0 14 2 19 5 13 2 -7 2
-19 0 -25z m37 -36 c8 -14 -1 -52 -13 -52 -4 0 -13 16 -19 36 -8 27 -8 33 2
25 9 -8 11 -1 9 27 -2 36 -2 36 6 6 4 -17 11 -36 15 -42z m1796 -156 c0 -2 -7
-7 -16 -10 -8 -3 -12 -2 -9 4 6 10 25 14 25 6z m-80 -110 c0 -3 -4 -8 -10 -11
-5 -3 -10 -1 -10 4 0 6 5 11 10 11 6 0 10 -2 10 -4z m36 -25 c-3 -4 -27 -16
-53 -26 -26 -10 -61 -27 -77 -38 -20 -15 -30 -17 -35 -8 -5 7 -12 11 -17 10
-26 -5 -54 2 -48 12 6 11 32 9 68 -6 14 -6 17 -5 12 3 -5 8 -1 10 10 5 12 -4
15 -3 10 5 -5 8 -2 10 9 6 11 -5 14 -2 9 12 -5 16 -4 16 5 4 9 -13 13 -13 33
-1 18 11 41 20 76 30 2 1 1 -3 -2 -8z m-251 -60 c-3 -6 3 -15 12 -21 15 -9 14
-10 -7 -4 -14 3 -27 8 -29 10 -6 5 10 24 20 24 6 0 8 -4 4 -9z m-67 -33 c-3
-7 -17 -13 -31 -13 -30 -1 -36 11 -9 18 32 9 44 7 40 -5z m122 -3 c-14 -8 -32
-14 -40 -14 -8 0 -1 6 15 14 40 18 57 18 25 0z m-195 -26 c-4 -5 -14 -8 -23
-8 -15 1 -15 2 1 6 9 2 14 9 11 15 -4 7 -2 8 5 4 6 -4 9 -12 6 -17z m92 -18
c-7 -2 -16 -9 -20 -15 -6 -7 -7 -4 -3 7 3 11 2 16 -4 12 -6 -3 -10 -12 -10
-20 0 -7 -20 -20 -44 -28 -38 -13 -44 -13 -39 -1 3 8 9 11 14 8 5 -3 9 -1 9 5
0 6 6 8 13 5 8 -3 14 2 14 10 0 11 -6 12 -24 5 -30 -11 -33 -11 -33 0 0 5 12
12 27 16 20 5 31 2 41 -12 13 -17 14 -16 7 6 -4 13 -3 21 2 18 5 -3 15 -2 22
3 8 5 19 3 26 -3 10 -9 10 -13 2 -16z m-145 -27 c-3 -19 -7 -22 -13 -12 -6 9
-9 9 -9 1 0 -7 -7 -10 -15 -7 -22 9 -18 24 5 24 11 0 20 5 20 10 0 6 4 10 9
10 4 0 6 -12 3 -26z m-1502 -30 c0 -13 -5 -24 -11 -24 -5 0 -7 -5 -3 -11 4 -8
0 -8 -15 0 -25 14 -28 23 -4 14 11 -4 14 -3 9 5 -10 16 3 54 15 47 5 -4 9 -17
9 -31z m1490 -18 c0 -2 -7 -7 -16 -10 -8 -3 -12 -2 -9 4 6 10 25 14 25 6z
m1018 -61 c-3 -3 -9 2 -12 12 -6 14 -5 15 5 6 7 -7 10 -15 7 -18z m-2248 -75
c0 -5 -4 -10 -10 -10 -5 0 -10 5 -10 10 0 6 5 10 10 10 6 0 10 -4 10 -10z
m-570 -83 c0 -5 -4 -5 -10 -2 -5 3 -10 14 -10 23 0 15 2 15 10 2 5 -8 10 -19
10 -23z m535 -67 c-3 -5 -11 -10 -16 -10 -6 0 -7 5 -4 10 3 6 11 10 16 10 6 0
7 -4 4 -10z m-606 -44 c-24 -41 -29 -44 -29 -16 0 20 37 66 46 57 3 -2 -5 -21
-17 -41z m676 24 c3 -5 1 -10 -4 -10 -6 0 -11 5 -11 10 0 6 2 10 4 10 3 0 8
-4 11 -10z m-74 -7 c-10 -4 -10 -7 -1 -13 9 -5 9 -9 1 -14 -6 -4 -11 -2 -11 3
0 6 -8 11 -17 12 -15 0 -15 2 2 9 11 5 25 9 30 9 6 -1 4 -3 -4 -6z m364 -2 c3
-5 1 -12 -5 -16 -5 -3 -10 0 -10 7 0 8 -5 6 -11 -4 -5 -10 -15 -18 -20 -18 -6
0 -29 -9 -52 -19 -23 -10 -59 -26 -80 -35 -20 -8 -36 -21 -35 -28 2 -7 -7 -13
-18 -14 -12 0 -27 -5 -34 -9 -9 -5 -11 -4 -6 3 5 8 -3 12 -23 12 -17 0 -31 -4
-31 -10 0 -14 -27 -13 -32 2 -3 7 -9 8 -19 3 -8 -5 -23 -8 -35 -7 -13 2 -21
-3 -21 -12 0 -11 4 -13 13 -5 13 10 32 -6 20 -18 -3 -4 -6 0 -6 7 0 10 -5 9
-18 -3 -10 -10 -21 -14 -25 -11 -3 3 -4 -2 -1 -13 4 -19 -11 -51 -20 -42 -8 8
-15 159 -7 160 3 0 17 2 31 5 14 2 68 8 120 13 118 12 284 43 288 53 5 11 30
10 37 -1z m-502 -111 c3 -11 1 -18 -4 -14 -5 3 -9 12 -9 20 0 20 7 17 13 -6z
m-53 -17 c0 -5 -5 -15 -10 -23 -8 -12 -10 -11 -10 8 0 12 5 22 10 22 6 0 10
-3 10 -7z m57 -35 c-3 -8 -6 -5 -6 6 -1 11 2 17 5 13 3 -3 4 -12 1 -19z m-510
-50 c-3 -8 -6 -5 -6 6 -1 11 2 17 5 13 3 -3 4 -12 1 -19z m400 -15 c-8 -10
-16 -22 -18 -28 -4 -23 -12 -35 -22 -35 -5 0 -2 9 8 20 10 11 14 20 10 20 -4
0 0 9 9 19 11 12 15 25 11 33 -6 10 -5 10 5 1 11 -10 11 -16 -3 -30z m189 -96
c-3 -45 -9 -147 -13 -227 -4 -80 -9 -135 -11 -122 -2 12 -8 20 -13 17 -10 -7
-11 115 -1 246 8 102 6 119 -16 119 -13 0 -14 -2 -4 -9 9 -5 11 -23 7 -62 -7
-67 -14 -91 -25 -84 -4 2 -10 -9 -14 -26 -3 -17 -20 -51 -38 -77 -18 -26 -34
-49 -36 -52 -2 -2 -8 2 -13 10 -8 12 -10 10 -6 -7 3 -16 0 -23 -9 -23 -8 0
-14 6 -15 13 0 6 -4 3 -9 -8 -12 -29 -12 -35 4 -35 9 0 12 -8 8 -25 -4 -21
-10 -25 -43 -25 -21 0 -41 -5 -44 -11 -4 -6 -17 -14 -29 -19 -17 -7 -17 -9 -3
-9 9 -1 17 -7 17 -13 0 -7 5 -5 11 5 12 21 39 23 39 3 0 -24 -142 -57 -155
-36 -3 6 0 11 7 11 7 1 20 2 28 3 8 0 15 11 16 23 1 27 26 53 51 53 15 0 15 2
4 9 -11 7 -12 13 -4 23 6 7 13 24 16 38 3 14 23 43 43 65 20 22 35 40 33 40
-2 0 13 21 34 46 20 25 37 51 37 56 0 6 14 28 31 49 29 36 63 101 61 115 -1 3
13 6 30 7 l31 1 -7 -82z m-136 -17 c0 -5 -5 -10 -11 -10 -5 0 -7 5 -4 10 3 6
8 10 11 10 2 0 4 -4 4 -10z m-30 -19 c0 -4 -28 -22 -62 -40 -70 -35 -64 -22 9
20 27 15 49 27 51 28 1 1 2 -3 2 -8z m-150 -15 c0 -2 -8 -10 -17 -17 -16 -13
-17 -12 -4 4 13 16 21 21 21 13z m10 -66 c-8 -6 -24 -15 -35 -21 -16 -8 -15
-6 4 10 13 12 28 21 35 21 6 0 4 -5 -4 -10z m-55 -90 c10 -11 16 -20 13 -20
-3 0 -13 9 -23 20 -10 11 -16 20 -13 20 3 0 13 -9 23 -20z m-50 -10 c3 -5 2
-10 -4 -10 -5 0 -13 5 -16 10 -3 6 -2 10 4 10 5 0 13 -4 16 -10z m-55 -30 c0
-5 -8 -10 -17 -10 -15 0 -16 2 -3 10 19 12 20 12 20 0z m520 -15 c-7 -9 -15
-13 -18 -10 -3 2 1 11 8 20 7 9 15 13 18 10 3 -2 -1 -11 -8 -20z m-570 1 c0
-7 -45 -33 -70 -40 -14 -4 -5 4 20 18 51 28 50 27 50 22z m327 -52 c-3 -3 -12
-4 -19 -1 -8 3 -5 6 6 6 11 1 17 -2 13 -5z m-745 -206 c-6 -22 -7 -22 -12 7
-4 17 -4 36 -1 44 8 24 20 -24 13 -51z m508 45 c-8 -2 -24 -8 -35 -13 -21 -10
-92 -33 -162 -55 -46 -14 -58 -4 -20 17 30 16 176 56 207 56 14 0 18 -2 10 -5z
m70 -17 c0 -3 -4 -8 -10 -11 -5 -3 -10 -1 -10 4 0 6 5 11 10 11 6 0 10 -2 10
-4z m-199 -79 c-9 -9 -14 -8 -21 3 -7 11 -4 17 8 21 21 8 29 -8 13 -24z m49
-59 c0 -6 -9 -1 -20 12 -11 13 -20 27 -20 32 0 4 9 -1 20 -12 11 -11 20 -25
20 -32z m27 46 c-3 -3 -12 -4 -19 -1 -8 3 -5 6 6 6 11 1 17 -2 13 -5z m-730
-46 c-3 -7 -5 -2 -5 12 0 14 2 19 5 13 2 -7 2 -19 0 -25z m773 -17 c0 -10 -12
-24 -27 -32 -16 -7 -31 -15 -35 -17 -13 -6 -2 23 17 49 21 28 45 28 45 0z
m-453 -18 c-3 -10 -5 -4 -5 12 0 17 2 24 5 18 2 -7 2 -21 0 -30z m163 -41 c24
-21 41 -43 39 -50 -2 -7 -25 8 -54 38 -58 59 -47 67 15 12z m-441 -18 c-6 -16
-13 -24 -16 -18 -2 6 2 24 8 40 6 16 13 24 16 18 2 -6 -2 -24 -8 -40z m273
-51 l-10 -48 -1 60 c-1 43 2 56 10 48 8 -8 9 -25 1 -60z m408 48 c0 -5 -12
-11 -27 -14 -26 -5 -26 -4 -8 9 22 16 35 18 35 5z m-230 -42 c0 -6 -4 -7 -10
-4 -5 3 -10 11 -10 16 0 6 5 7 10 4 6 -3 10 -11 10 -16z m-40 7 c0 -3 -4 -8
-10 -11 -5 -3 -10 -1 -10 4 0 6 5 11 10 11 6 0 10 -2 10 -4z m147 -63 c12 -13
18 -23 14 -23 -4 0 -16 9 -26 20 -10 11 -20 18 -23 15 -6 -5 -31 26 -32 39 0
10 30 -13 67 -51z m97 35 c-34 -40 -44 -64 -32 -76 11 -11 10 -12 -37 -27 -18
-5 28 82 57 108 28 24 35 21 12 -5z m-760 -65 c-19 -29 -44 -58 -44 -50 0 12
30 61 42 68 21 14 21 11 2 -18z m337 -39 c-6 -21 -8 -40 -5 -43 8 -8 24 21 24
44 0 11 5 27 10 35 8 13 10 12 11 -5 2 -32 -2 -60 -11 -65 -4 -3 -11 -45 -15
-95 -8 -86 -9 -89 -21 -60 -16 35 -17 187 -2 225 15 36 21 8 9 -36z m109 36
c-6 -11 -13 -20 -16 -20 -2 0 0 9 6 20 6 11 13 20 16 20 2 0 0 -9 -6 -20z
m203 -37 c-6 -16 -8 -15 -13 7 -5 19 -13 25 -33 25 -29 -1 -24 11 8 17 25 5
47 -24 38 -49z m-113 -46 c0 -6 -11 0 -25 13 -14 13 -25 28 -25 33 0 6 11 0
25 -13 14 -13 25 -28 25 -33z m-21 -8 c27 -35 24 -43 -10 -30 -13 5 -20 10
-16 10 5 1 5 6 1 12 -5 8 -9 7 -14 -1 -5 -8 -7 -3 -7 13 2 35 16 33 46 -4z
m181 21 c0 -11 -48 -25 -57 -16 -3 3 5 10 18 15 32 13 39 13 39 1z m-10 -51
c0 -5 -4 -8 -9 -5 -10 7 -24 -31 -21 -59 2 -16 0 -17 -14 -6 -9 7 -13 18 -9
25 4 6 6 21 4 34 -2 18 2 22 23 22 14 0 26 -5 26 -11z m-115 -28 c3 -5 1 -12
-4 -15 -5 -3 -11 1 -15 9 -6 16 9 21 19 6z m-43 -55 c-2 -31 1 -45 8 -41 6 4
10 -5 10 -20 0 -33 -16 -24 -34 18 -9 20 -15 25 -15 15 -1 -10 -6 -18 -11 -18
-12 0 -9 38 4 58 6 11 11 11 24 0 14 -11 14 -9 0 8 -10 11 -18 23 -18 26 0 4
8 5 18 4 14 -3 16 -12 14 -50z m94 -51 c-11 -8 -14 -15 -7 -15 7 0 9 -5 6 -10
-4 -6 -11 -8 -16 -5 -5 4 -9 1 -9 -4 0 -6 -10 -11 -22 -11 -20 -1 -20 -2 7
-15 17 -7 23 -14 14 -14 -8 -1 -24 -8 -35 -16 -19 -15 -19 -15 1 -9 20 6 20 5
1 -10 -15 -12 -16 -16 -5 -16 10 -1 9 -5 -5 -15 -24 -18 -40 -20 -30 -3 5 7 2
9 -7 6 -8 -3 -23 0 -34 8 -10 8 -13 14 -6 14 7 0 9 5 5 11 -4 8 1 9 17 4 16
-4 19 -3 11 3 -10 7 -8 14 8 33 11 13 19 18 18 10 -2 -8 6 -17 17 -19 17 -4
18 -2 6 12 -13 15 -12 18 8 23 13 3 20 11 17 19 -3 7 6 17 22 23 37 13 40 13
18 -4z m551 -403 c-8 -11 -12 -11 -18 0 -5 7 -9 18 -9 23 0 6 5 3 10 -5 8 -12
10 -8 11 15 1 29 1 29 8 5 5 -14 3 -31 -2 -38z"/>
<path d="M6180 6950 c0 -5 5 -10 11 -10 5 0 7 5 4 10 -3 6 -8 10 -11 10 -2 0
-4 -4 -4 -10z"/>
<path d="M3557 6123 c-4 -3 -7 -11 -7 -17 0 -6 5 -5 12 2 6 6 9 14 7 17 -3 3
-9 2 -12 -2z"/>
<path d="M3595 5840 c-3 -6 1 -7 9 -4 18 7 21 14 7 14 -6 0 -13 -4 -16 -10z"/>
<path d="M3570 5820 c8 -5 24 -10 34 -10 26 0 18 6 -19 14 -22 5 -26 4 -15 -4z"/>
<path d="M5776 4107 c3 -10 9 -15 12 -12 3 3 0 11 -7 18 -10 9 -11 8 -5 -6z"/>
<path d="M4271 2204 c0 -11 3 -14 6 -6 3 7 2 16 -1 19 -3 4 -6 -2 -5 -13z"/>
<path d="M4431 1574 c0 -11 3 -14 6 -6 3 7 2 16 -1 19 -3 4 -6 -2 -5 -13z"/>
<path d="M4226 1293 c-6 -14 -5 -15 5 -6 7 7 10 15 7 18 -3 3 -9 -2 -12 -12z"/>
<path d="M4180 1190 c-12 -7 -10 -9 7 -7 12 0 19 5 17 9 -6 10 -6 10 -24 -2z"/>
<path d="M2835 7180 c-3 -6 1 -7 9 -4 18 7 21 14 7 14 -6 0 -13 -4 -16 -10z"/>
<path d="M2669 7153 c-13 -16 -12 -17 4 -4 9 7 17 15 17 17 0 8 -8 3 -21 -13z"/>
<path d="M2679 6843 c-13 -16 -12 -17 4 -4 9 7 17 15 17 17 0 8 -8 3 -21 -13z"/>
<path d="M2748 6663 c7 -3 16 -2 19 1 4 3 -2 6 -13 5 -11 0 -14 -3 -6 -6z"/>
<path d="M2424 6515 c-17 -40 -18 -61 -4 -70 6 -3 10 3 10 15 0 11 7 36 14 55
9 20 11 35 5 35 -6 0 -17 -16 -25 -35z"/>
<path d="M2401 6430 c1 -8 5 -26 9 -40 l8 -25 1 25 c0 14 -4 32 -9 40 -9 13
-10 13 -9 0z"/>
<path d="M2397 6345 c3 -33 7 -62 9 -64 7 -8 2 74 -6 99 -5 16 -6 2 -3 -35z"/>
<path d="M2381 6324 c0 -11 3 -14 6 -6 3 7 2 16 -1 19 -3 4 -6 -2 -5 -13z"/>
<path d="M2453 6237 c-1 -38 0 -39 8 -13 4 16 5 35 1 43 -5 7 -8 -5 -9 -30z"/>
<path d="M2393 6195 c0 -27 2 -38 4 -22 2 15 2 37 0 50 -2 12 -4 0 -4 -28z"/>
<path d="M2442 6170 c0 -14 2 -19 5 -12 2 6 2 18 0 25 -3 6 -5 1 -5 -13z"/>
<path d="M2370 6108 c1 -60 19 -161 31 -168 6 -4 7 -10 2 -13 -5 -3 -9 -20
-10 -39 l-1 -33 13 40 c16 47 19 88 6 67 -10 -17 -21 41 -21 115 0 28 -4 55
-10 58 -6 4 -10 -7 -10 -27z"/>
<path d="M2433 6085 c0 -33 2 -45 4 -27 2 18 2 45 0 60 -2 15 -4 0 -4 -33z"/>
<path d="M2422 6000 c0 -14 2 -19 5 -12 2 6 2 18 0 25 -3 6 -5 1 -5 -13z"/>
<path d="M3270 5956 c0 -2 8 -10 18 -17 15 -13 16 -12 3 4 -13 16 -21 21 -21
13z"/>
<path d="M2765 5741 c-43 -66 -62 -107 -30 -65 11 14 14 15 15 4 0 -8 7 -2 15
14 9 16 13 31 10 34 -2 3 7 18 20 34 23 28 32 48 20 48 -3 0 -26 -31 -50 -69z"/>
<path d="M2380 5700 c0 -13 11 -13 30 0 12 8 11 10 -7 10 -13 0 -23 -4 -23
-10z"/>
<path d="M2453 5684 c20 -24 22 -38 5 -28 -7 4 -4 -2 6 -14 21 -24 56 -30 57
-9 1 25 18 -29 19 -63 1 -19 5 -44 10 -55 6 -13 7 -1 3 35 -7 61 -20 106 -30
97 -3 -4 -24 8 -47 25 -23 18 -33 23 -23 12z"/>
<path d="M2380 5675 c0 -3 11 -23 25 -43 14 -20 25 -32 25 -26 0 5 -5 15 -12
22 -9 9 -9 12 1 12 7 0 9 4 6 10 -8 12 -45 33 -45 25z"/>
<path d="M2480 5498 c0 -6 -12 -21 -27 -34 -24 -21 -25 -23 -6 -18 18 5 24 1
30 -22 9 -34 10 -41 12 -54 0 -5 5 -10 11 -10 5 0 3 18 -5 40 -16 44 -9 50 23
20 26 -24 22 -68 -14 -149 -13 -30 -23 -56 -21 -58 10 -9 60 126 61 163 1 25
5 40 11 36 16 -10 -26 51 -52 75 -12 12 -23 17 -23 11z"/>
<path d="M2547 5470 c3 -11 9 -22 13 -25 5 -3 6 4 3 15 -3 11 -9 22 -13 25 -5
3 -6 -4 -3 -15z"/>
<path d="M2843 5413 c9 -2 23 -2 30 0 6 3 -1 5 -18 5 -16 0 -22 -2 -12 -5z"/>
<path d="M2860 5396 c0 -2 7 -6 15 -10 8 -3 15 -1 15 4 0 6 -7 10 -15 10 -8 0
-15 -2 -15 -4z"/>
<path d="M2372 5325 c12 -24 23 -43 26 -41 4 5 -36 86 -43 86 -3 0 5 -20 17
-45z"/>
<path d="M2935 5360 c3 -5 8 -10 11 -10 2 0 4 5 4 10 0 6 -5 10 -11 10 -5 0
-7 -4 -4 -10z"/>
<path d="M3031 5324 c0 -11 3 -14 6 -6 3 7 2 16 -1 19 -3 4 -6 -2 -5 -13z"/>
<path d="M3180 5279 c-25 -12 -39 -14 -48 -7 -19 16 -25 3 -7 -16 22 -21 68
-20 93 2 33 27 6 42 -38 21z m35 -9 c-3 -5 -12 -10 -18 -10 -7 0 -6 4 3 10 19
12 23 12 15 0z"/>
<path d="M7027 4990 c3 -11 9 -22 13 -25 5 -3 6 4 3 15 -3 11 -9 22 -13 25 -5
3 -6 -4 -3 -15z"/>
<path d="M6985 4960 c4 -6 11 -8 16 -5 14 9 11 15 -7 15 -8 0 -12 -5 -9 -10z"/>
<path d="M7060 4896 c0 -8 4 -17 9 -20 5 -4 7 3 4 14 -6 23 -13 26 -13 6z"/>
<path d="M3790 4860 c0 -5 5 -10 11 -10 5 0 7 5 4 10 -3 6 -8 10 -11 10 -2 0
-4 -4 -4 -10z"/>
<path d="M6950 4744 c0 -11 -4 -24 -8 -29 -5 -6 -6 -23 -2 -40 6 -27 7 -25 14
23 5 29 5 56 2 59 -3 4 -6 -3 -6 -13z"/>
<path d="M2485 4635 c-16 -13 -26 -27 -22 -31 4 -4 7 -4 7 0 0 4 10 2 21 -5
15 -8 19 -8 15 0 -4 6 0 11 9 11 8 0 18 -7 21 -15 4 -8 10 -15 16 -15 5 0 7 4
3 9 -7 13 54 5 70 -9 10 -8 14 -7 18 2 2 7 -7 22 -20 33 -24 20 -24 21 -4 21
11 0 18 -2 16 -4 -4 -4 20 -32 27 -32 2 0 5 11 6 24 1 21 -3 24 -60 30 -86 9
-90 8 -123 -19z"/>
<path d="M2570 4580 c0 -5 5 -10 11 -10 5 0 8 -4 5 -8 -2 -4 4 -8 14 -8 19 0
19 1 0 18 -22 20 -30 23 -30 8z"/>
<path d="M2643 4571 c-10 -16 -8 -22 9 -37 21 -19 21 -19 9 3 -7 14 -8 24 -1
28 12 7 13 25 2 25 -4 0 -13 -9 -19 -19z"/>
<path d="M2595 4530 c3 -5 8 -10 11 -10 2 0 4 5 4 10 0 6 -5 10 -11 10 -5 0
-7 -4 -4 -10z"/>
<path d="M2455 4500 c10 -11 20 -20 22 -20 2 0 -2 9 -9 20 -7 11 -17 20 -22
20 -5 0 -1 -9 9 -20z"/>
<path d="M2617 4178 c-11 -5 -32 -7 -48 -4 -21 4 -31 1 -36 -10 -5 -13 -8 -13
-24 2 -31 28 -21 7 13 -28 21 -21 33 -28 36 -19 3 8 9 6 19 -8 12 -18 22 -21
71 -17 32 2 98 -5 151 -15 51 -11 114 -19 140 -19 26 0 51 -3 55 -7 4 -5 11
-8 15 -8 4 0 24 -17 43 -38 36 -37 56 -40 83 -13 17 17 12 55 -7 62 -10 3 -16
9 -13 14 3 4 -3 7 -12 5 -10 -1 -23 2 -30 7 -6 5 -24 11 -39 14 -16 3 -31 8
-34 11 -3 3 5 3 18 0 12 -3 20 -2 17 2 -2 5 -36 11 -76 14 -39 3 -77 11 -84
17 -7 6 -39 12 -71 14 -40 2 -61 8 -70 20 -7 10 -15 13 -18 7 -4 -6 -12 -8
-19 -6 -39 11 -64 13 -80 3z m467 -159 c-3 -6 6 -8 20 -5 15 3 24 1 21 -3 -4
-7 -28 -8 -56 -2 -4 0 -9 7 -12 15 -4 10 0 12 14 9 10 -3 16 -9 13 -14z"/>
<path d="M2935 4139 c-4 -5 11 -9 31 -9 42 0 42 6 1 14 -14 2 -29 0 -32 -5z"/>
<path d="M6581 4124 c0 -11 3 -14 6 -6 3 7 2 16 -1 19 -3 4 -6 -2 -5 -13z"/>
<path d="M3070 4095 c7 -9 15 -13 17 -11 7 7 -7 26 -19 26 -6 0 -6 -6 2 -15z"/>
<path d="M2968 4043 c7 -3 16 -2 19 1 4 3 -2 6 -13 5 -11 0 -14 -3 -6 -6z"/>
<path d="M2737 3941 c76 -9 73 -17 -7 -15 -41 1 -73 -2 -77 -9 -3 -5 -1 -7 4
-4 14 9 65 -31 57 -44 -3 -5 -10 -6 -16 -3 -7 4 -8 2 -4 -4 9 -14 102 -16 111
-3 3 5 17 8 32 7 15 -2 32 1 37 5 6 5 22 18 36 28 14 11 22 22 18 26 -9 9
-140 24 -198 23 l-45 -1 52 -6z m153 -31 c0 -5 -4 -10 -10 -10 -5 0 -10 5 -10
10 0 6 5 10 10 10 6 0 10 -4 10 -10z"/>
<path d="M6228 3905 c2 -14 6 -25 8 -25 2 0 4 11 4 25 0 14 -4 25 -9 25 -4 0
-6 -11 -3 -25z"/>
<path d="M2804 3849 c-3 -5 9 -9 25 -9 17 0 31 2 31 4 0 8 -51 13 -56 5z"/>
<path d="M2875 3850 c-3 -6 1 -7 9 -4 18 7 21 14 7 14 -6 0 -13 -4 -16 -10z"/>
<path d="M6246 3815 c-16 -14 -25 -25 -19 -25 5 0 20 11 33 25 30 32 23 32
-14 0z"/>
<path d="M3880 3630 c0 -5 7 -10 15 -10 8 0 15 5 15 10 0 6 -7 10 -15 10 -8 0
-15 -4 -15 -10z"/>
<path d="M6532 3470 c0 -14 2 -19 5 -12 2 6 2 18 0 25 -3 6 -5 1 -5 -13z"/>
<path d="M6522 3410 c0 -19 2 -27 5 -17 2 9 2 25 0 35 -3 9 -5 1 -5 -18z"/>
<path d="M6120 3297 c0 -30 50 -175 65 -187 20 -17 19 -7 -4 38 -11 21 -26 64
-34 96 -16 60 -27 82 -27 53z"/>
<path d="M4230 3066 c0 -2 6 -9 13 -15 10 -8 14 -7 14 4 0 8 -6 15 -14 15 -7
0 -13 -2 -13 -4z"/>
<path d="M4408 2900 c-7 -24 -3 -38 8 -28 3 4 4 17 2 30 l-3 23 -7 -25z"/>
<path d="M6555 2671 c11 -5 39 -46 65 -97 25 -49 50 -89 56 -89 10 0 37 -23
213 -177 46 -40 106 -91 134 -113 28 -22 71 -58 96 -80 25 -22 55 -47 66 -54
34 -23 -76 80 -165 154 -264 222 -311 270 -365 382 -18 38 -78 84 -107 82 -7
0 -4 -4 7 -8z m100 -106 c17 -31 21 -44 10 -33 -9 9 -26 36 -37 60 -24 53 -11
40 27 -27z"/>
<path d="M4317 2458 c-6 -21 -2 -36 7 -27 10 11 16 49 8 49 -5 0 -12 -10 -15
-22z"/>
<path d="M6487 2313 c-4 -3 -7 -13 -7 -21 0 -9 3 -12 7 -9 3 4 11 3 17 -2 6
-4 20 -11 31 -14 17 -6 17 -4 -4 13 -21 18 -21 20 -5 21 18 0 17 1 -1 9 -26
11 -30 11 -38 3z"/>
<path d="M4175 2139 c-4 -6 -5 -12 -2 -15 2 -3 7 2 10 11 7 17 1 20 -8 4z"/>
<path d="M4370 1984 c-100 -39 -116 -46 -105 -50 13 -5 169 49 173 60 7 16 -5
14 -68 -10z"/>
<path d="M3759 1953 l-34 -38 38 34 c20 19 37 36 37 38 0 8 -8 0 -41 -34z"/>
<path d="M3765 1873 c-3 -10 -5 -58 -4 -108 2 -49 3 -118 4 -153 0 -34 3 -62
8 -62 4 0 6 76 5 170 -2 93 -4 170 -4 170 -1 0 -5 -8 -9 -17z"/>
<path d="M4087 1543 c-9 -2 -15 -9 -12 -14 9 -14 22 -11 29 6 3 8 4 14 3 14
-1 -1 -10 -3 -20 -6z"/>
<path d="M3462 1440 c0 -14 2 -19 5 -12 2 6 2 18 0 25 -3 6 -5 1 -5 -13z"/>
<path d="M2915 1270 c1 -52 9 -205 16 -340 7 -147 9 -261 4 -285 -8 -38 -9
-35 -17 45 -5 47 -11 99 -13 115 -3 17 -9 143 -13 280 l-9 250 -1 -200 c-1
-110 3 -267 10 -348 9 -118 9 -186 -1 -330 -8 -100 -15 -191 -18 -202 -2 -11
-5 -74 -8 -140 l-4 -120 13 140 c8 77 17 193 21 258 8 127 25 170 25 62 0 -42
4 -64 10 -60 9 6 8 34 -5 163 -4 35 -2 42 13 42 15 0 18 11 21 72 1 40 7 81
13 92 8 15 7 21 -6 28 -12 7 -16 24 -16 69 0 58 -27 430 -34 479 -3 14 -3 -18
-1 -70z"/>
<path d="M3510 1314 c0 -8 5 -12 10 -9 6 4 8 11 5 16 -9 14 -15 11 -15 -7z"/>
<path d="M3528 1200 c5 -35 8 -37 15 -10 3 10 -1 24 -7 29 -10 8 -11 3 -8 -19z"/>
<path d="M3725 1220 c-8 -12 2 -30 17 -30 7 0 7 4 -1 13 -6 8 -8 17 -4 20 3 4
4 7 0 7 -3 0 -9 -4 -12 -10z"/>
<path d="M3631 1184 c0 -11 3 -14 6 -6 3 7 2 16 -1 19 -3 4 -6 -2 -5 -13z"/>
<path d="M3634 1050 c0 -58 1 -81 3 -52 2 28 2 76 0 105 -2 28 -3 5 -3 -53z"/>
<path d="M3091 864 c0 -11 3 -14 6 -6 3 7 2 16 -1 19 -3 4 -6 -2 -5 -13z"/>
</g>
</svg>
